<?xml version="1.0" encoding="UTF-8" standalone="no"?>
<svg
   width="20px"
   height="20px"
   viewBox="0 0 24 24"
   fill="none"
   version="1.1"
   id="svg11"
   sodipodi:docname="frame-add.svg"
   xml:space="preserve"
   inkscape:version="1.4.2 (ebf0e940d0, 2025-05-08)"
   xmlns:inkscape="http://www.inkscape.org/namespaces/inkscape"
   xmlns:sodipodi="http://sodipodi.sourceforge.net/DTD/sodipodi-0.dtd"
   xmlns="http://www.w3.org/2000/svg"
   xmlns:svg="http://www.w3.org/2000/svg"><defs
     id="defs11" /><sodipodi:namedview
     id="namedview11"
     pagecolor="#ffffff"
     bordercolor="#000000"
     borderopacity="0.25"
     inkscape:showpageshadow="2"
     inkscape:pageopacity="0.0"
     inkscape:pagecheckerboard="0"
     inkscape:deskcolor="#d1d1d1"
     showguides="true"
     inkscape:zoom="94"
     inkscape:cx="9.9946809"
     inkscape:cy="11.702128"
     inkscape:window-width="3752"
     inkscape:window-height="2091"
     inkscape:window-x="0"
     inkscape:window-y="0"
     inkscape:window-maximized="1"
     inkscape:current-layer="g11"><sodipodi:guide
       position="13.864678,8.0275931"
       orientation="0,-1"
       id="guide11"
       inkscape:locked="false" /><sodipodi:guide
       position="19.012301,12.565442"
       orientation="1,0"
       id="guide12"
       inkscape:locked="false" /></sodipodi:namedview><path
     d="M10 4L11.9505 3.02477C11.9816 3.00918 12.0184 3.00918 12.0495 3.02477V3.02477L14 4"
     stroke="#b7e0e6"
     stroke-width="2"
     stroke-linecap="round"
     stroke-linejoin="round"
     id="path1" /><path
     d="M10 11L11.1056 11.5528C11.6686 11.8343 12.3314 11.8343 12.8944 11.5528L14 11"
     stroke="#b7e0e6"
     stroke-width="2"
     stroke-linecap="round"
     stroke-linejoin="round"
     id="path2" /><path
     d="M12 12V14"
     stroke="#b7e0e6"
     stroke-width="2"
     stroke-linecap="round"
     stroke-linejoin="round"
     id="path3" /><path
     d="M18.5 6.5L19.9441 7.46274V7.46274C19.979 7.48602 20 7.52521 20 7.56717V9.5"
     stroke="#b7e0e6"
     stroke-width="2"
     stroke-linecap="round"
     stroke-linejoin="round"
     id="path4" /><path
     d="M19.5 7.5L18 8.5"
     stroke="#b7e0e6"
     stroke-width="2"
     stroke-linecap="round"
     stroke-linejoin="round"
     id="path5" /><path
     d="M5.5 6.5L4.05048 7.46635V7.46635C4.01894 7.48737 4 7.52277 4 7.56067V9.5"
     stroke="#b7e0e6"
     stroke-width="2"
     stroke-linecap="round"
     stroke-linejoin="round"
     id="path6" /><path
     d="M4 7.5L5.5 8.5"
     stroke="#b7e0e6"
     stroke-width="2"
     stroke-linecap="round"
     stroke-linejoin="round"
     id="path7" /><path
     d="M4 14.5V16.4469C4 16.4801 4.01658 16.5111 4.04417 16.5294V16.5294L5.5 17.5"
     stroke="#b7e0e6"
     stroke-width="2"
     stroke-linecap="round"
     stroke-linejoin="round"
     id="path8" /><path
     d="M10 20L11.9516 20.9758C11.9821 20.991 12.0179 20.991 12.0484 20.9758V20.9758L14 20"
     stroke="#b7e0e6"
     stroke-width="2"
     stroke-linecap="round"
     stroke-linejoin="round"
     id="path9" /><path
     d="M12 21V18.5"
     stroke="#b7e0e6"
     stroke-width="2"
     stroke-linecap="round"
     stroke-linejoin="round"
     id="path10" /><g
     style="fill:#b7e0e6;stroke-width:2.24767526;stroke-dasharray:none"
     id="g11"
     transform="matrix(0.57659575,0,0,0.57659575,13.293617,11.493617)"><path
       d="m 13.340407,4.395756 c 0,-2.4850849 -3.4483397,-2.4842166 -3.4483397,0 v 3.39299 H 6.3440961 c -2.2390122,0.00216 -2.2389909,3.295519 0,3.293356 h 3.5479712 v 3.813654 c 0,2.45191 3.4483397,2.571648 3.4483397,0 v -3.813654 h 3.50369 c 2.08973,0 2.128309,-3.293356 0,-3.293356 h -3.50369 z"
       id="path1-3"
       style="stroke-width:2.24768;stroke-dasharray:none"
       inkscape:transform-center-x="0.025531913"
       sodipodi:nodetypes="ccccccccccccc" /></g></svg>
